<?xml version="1.0" encoding="utf-8"?><svg xmlns="http://www.w3.org/2000/svg" xmlns:xlink="http://www.w3.org/1999/xlink"><symbol viewBox="0 0 150 50" id="add-button" xmlns="http://www.w3.org/2000/svg">
    <rect x="1" y="1" width="148" height="48" rx="1" stroke-width="2"/>
    <path d="M86 23.7778H76.2222V14H73.7778V23.7778H64V26.2222H73.7778V36H76.2222V26.2222H86V23.7778Z"/>
</symbol><symbol viewBox="0 0 32 32" id="close-icon" xmlns="http://www.w3.org/2000/svg">
    <path d="M32 28.8L19.2 16L32 3.2L28.8 0L16 12.8L3.2 0L0 3.2L12.8 16L0 28.8L3.2 32L16 19.2L28.8 32L32 28.8Z"/>
</symbol><symbol viewBox="0 0 24 24" id="edit-button" xmlns="http://www.w3.org/2000/svg">
    <rect x="0.5" y="0.5" width="23" height="23"/>
    <path d="M17 8.32827L9.60377 15.7666L8.28302 14.4194L15.6604 7L17 8.32827ZM7 17L8.96226 16.4118L7.58491 15.0835L7 17Z"/>
</symbol><symbol viewBox="0 0 22 19" id="heart" xmlns="http://www.w3.org/2000/svg">
    <path d="M19.7717 2.21518L19.7744 2.21779C21.7404 4.14248 21.7442 7.30216 19.7717 9.25255L10.9804 17.9453L2.21428 9.27757C1.27432 8.32745 0.75 7.0739 0.75 5.74496C0.75 4.4081 1.25733 3.15857 2.21143 2.21517L2.21144 2.21518L2.21408 2.21254C4.16486 0.264365 7.37312 0.260595 9.35012 2.23477L9.35011 2.23478L9.35274 2.23737L10.453 3.32531L10.9857 3.85202L11.513 3.31996L12.6105 2.21262C14.5865 0.26161 17.7969 0.262461 19.7717 2.21518Z" stroke-width="1.5"/>
</symbol><symbol viewBox="0 0 18 19" id="trash" xmlns="http://www.w3.org/2000/svg">
    <path d="M2.45787 17.86C2.51882 18.52 3.06735 19 3.73778 19H14.2615C14.9319 19 15.4804 18.5 15.5414 17.86L16.7197 5.69995H1.27954L2.45787 17.86Z"/>
    <path d="M16.7201 1.9H11.5801V1.26C11.5801 0.560001 11.0113 0 10.3002 0H7.72009C7.00903 0 6.44018 0.560001 6.44018 1.26V1.9H1.27991C0.568849 1.9 0 2.46 0 3.16C0 3.86001 0.568849 4.42001 1.27991 4.42001H16.7201C17.4312 4.42001 18 3.86001 18 3.16C18 2.46 17.4312 1.9 16.7201 1.9Z"/>
</symbol></svg>