<?xml version="1.0" encoding="utf-8"?><svg viewBox="0 0 150 50" xmlns="http://www.w3.org/2000/svg" xmlns:xlink="http://www.w3.org/1999/xlink"><style>:root>svg{display:none}:root>svg:target{display:block}</style><svg fill="none" viewBox="0 0 150 50" id="add-button" xmlns="http://www.w3.org/2000/svg">
    <rect x="1" y="1" width="148" height="48" rx="1" stroke="#fff" stroke-width="2"/>
    <path d="M86 23.778h-9.778V14h-2.444v9.778H64v2.444h9.778V36h2.444v-9.778H86v-2.444Z" fill="#fff"/>
</svg><svg fill="none" viewBox="0 0 32 32" id="close-icon" xmlns="http://www.w3.org/2000/svg">
    <path d="M32 28.8 19.2 16 32 3.2 28.8 0 16 12.8 3.2 0 0 3.2 12.8 16 0 28.8 3.2 32 16 19.2 28.8 32l3.2-3.2Z" fill="#fff"/>
</svg><svg fill="none" viewBox="0 0 24 24" id="edit-button" xmlns="http://www.w3.org/2000/svg">
    <path stroke="#fff" d="M.5.5h23v23H.5z"/>
    <path d="m17 8.328-7.396 7.439-1.321-1.348L15.66 7 17 8.328ZM7 17l1.962-.588-1.377-1.328L7 17Z" fill="#fff"/>
</svg><svg fill="none" viewBox="0 0 22 19" id="heart" xmlns="http://www.w3.org/2000/svg">
    <path d="m19.772 2.215.002.003c1.966 1.924 1.97 5.084-.002 7.035l-8.792 8.692-8.766-8.667A5 5 0 0 1 .75 5.745c0-1.337.507-2.586 1.461-3.53l.003-.002C4.164.264 7.374.26 9.35 2.235l.003.002 1.1 1.088.533.527.527-.532 1.098-1.107c1.975-1.951 5.186-1.95 7.16.002Z" fill="#000" stroke="#000" stroke-width="1.5"/>
</svg><svg fill="none" viewBox="0 0 18 19" id="trash" xmlns="http://www.w3.org/2000/svg">
    <path d="M2.458 17.86c.06.66.61 1.14 1.28 1.14h10.524c.67 0 1.218-.5 1.28-1.14L16.72 5.7H1.28l1.178 12.16ZM16.72 1.9h-5.14v-.64c0-.7-.569-1.26-1.28-1.26H7.72C7.01 0 6.44.56 6.44 1.26v.64H1.28C.569 1.9 0 2.46 0 3.16s.569 1.26 1.28 1.26h15.44c.711 0 1.28-.56 1.28-1.26s-.569-1.26-1.28-1.26Z" fill="#fff"/>
</svg></svg>