<?xml version="1.0" encoding="utf-8"?><svg viewBox="0 0 150 50" xmlns="http://www.w3.org/2000/svg" xmlns:xlink="http://www.w3.org/1999/xlink"><style>:root>svg{display:none}:root>svg:target{display:block}</style><svg fill="none" viewBox="0 0 150 50" id="add-button" xmlns="http://www.w3.org/2000/svg">
    <rect x="1" y="1" width="148" height="48" rx="1" stroke="#fff" stroke-width="2"/>
    <path d="M86 23.778h-9.778V14h-2.444v9.778H64v2.444h9.778V36h2.444v-9.778H86v-2.444Z" fill="#fff"/>
</svg><svg fill="none" viewBox="0 0 32 32" id="close-icon" xmlns="http://www.w3.org/2000/svg">
    <path d="M32 28.8 19.2 16 32 3.2 28.8 0 16 12.8 3.2 0 0 3.2 12.8 16 0 28.8 3.2 32 16 19.2 28.8 32l3.2-3.2Z" fill="#fff"/>
</svg><svg fill="none" viewBox="0 0 24 24" id="edit-button" xmlns="http://www.w3.org/2000/svg">
    <path stroke="#fff" d="M.5.5h23v23H.5z"/>
    <path d="m17 8.328-7.396 7.439-1.321-1.348L15.66 7 17 8.328ZM7 17l1.962-.588-1.377-1.328L7 17Z" fill="#fff"/>
</svg><svg fill="none" viewBox="0 0 22 19" id="heart" xmlns="http://www.w3.org/2000/svg">
    <path d="M20.3 9.786c2.267-2.243 2.267-5.884 0-8.104-2.269-2.243-5.951-2.243-8.22 0l-1.1 1.11-1.1-1.088C7.612-.56 3.93-.56 1.684 1.682A5.657 5.657 0 0 0 0 5.745a5.75 5.75 0 0 0 1.684 4.063L10.98 19l9.32-9.214ZM1.436 5.745c0-1.155.45-2.22 1.28-3.02A4.33 4.33 0 0 1 5.771 1.46c1.1 0 2.2.422 3.054 1.265l2.155 2.11 2.156-2.132c1.684-1.665 4.446-1.665 6.108 0 .808.8 1.28 1.865 1.28 3.02 0 1.154-.45 2.22-1.28 3.02l-8.264 8.192-8.263-8.17c-.808-.822-1.28-1.888-1.28-3.02Z" fill="#000"/>
</svg></svg>